<svg width="45" height="45" viewBox="0 0 45 45" fill="none" xmlns="http://www.w3.org/2000/svg">
<path d="M1.25395 17.8886C5.3202 25.5186 4.15895 32.8649 6.1177 36.5424C8.07645 40.2199 14.3064 46.8149 31.2214 37.8024C48.1364 28.7899 45.0839 17.0786 42.9277 13.0336C32.8377 -5.90511 -5.9473 4.37489 1.25395 17.8886V17.8886Z" fill="#EFEFEF"/>
<path d="M7.26123 39.6875C6.22748 39.6875 5.38623 38.8463 5.38623 37.8125C5.38623 36.7788 6.22748 35.9375 7.26123 35.9375C8.29498 35.9375 9.13623 36.7788 9.13623 37.8125C9.13623 38.8463 8.29498 39.6875 7.26123 39.6875ZM7.26123 37.1875C6.91748 37.1875 6.63623 37.4675 6.63623 37.8125C6.63623 38.1575 6.91748 38.4375 7.26123 38.4375C7.60498 38.4375 7.88623 38.1575 7.88623 37.8125C7.88623 37.4675 7.60498 37.1875 7.26123 37.1875Z" fill="#A4AFC1"/>
<path d="M17.6475 36.5625C14.6325 36.5625 12.1875 34.1075 12.1875 31.0787C12.1875 30.8837 12.1975 30.6925 12.2175 30.5025L13.4413 18.7325C13.8238 15.055 16.9188 12.1887 20.6813 12.1887H24.3213C28.0838 12.1887 31.1788 15.055 31.5613 18.7325L32.785 30.5025C32.805 30.6912 32.815 30.8837 32.815 31.0787C32.815 34.1075 30.3713 36.5625 27.355 36.5625H17.6475Z" fill="#F3F3F1" stroke="#F3F3F1" stroke-width="14.2222" stroke-miterlimit="10"/>
<path d="M17.6475 36.5625C14.6325 36.5625 12.1875 34.1075 12.1875 31.0787C12.1875 30.8837 12.1975 30.6925 12.2175 30.5025L13.4413 18.7325C13.8238 15.055 16.9188 12.1887 20.6813 12.1887H24.3213C28.0838 12.1887 31.1788 15.055 31.5613 18.7325L32.785 30.5025C32.805 30.6912 32.815 30.8837 32.815 31.0787C32.815 34.1075 30.3713 36.5625 27.355 36.5625H17.6475Z" fill="#F3F3F1"/>
<path d="M24.3201 12.1876H20.6801C16.9176 12.1876 13.8226 15.0539 13.4401 18.7314L13.4114 19.0076L13.4376 19.0614C19.4789 24.0614 25.5214 24.0614 31.5626 19.0614L31.5901 19.0214L31.5601 18.7314C31.1776 15.0539 28.0826 12.1876 24.3201 12.1876V12.1876Z" fill="#CA1D20"/>
<path d="M14.6875 31.0776C14.6875 30.8826 14.6975 30.6914 14.7175 30.5014L15.9413 18.7314C16.3238 15.0539 19.4188 12.1876 23.1813 12.1876H20.6813C16.9188 12.1876 13.8238 15.0539 13.4413 18.7314L12.2175 30.5014C12.1975 30.6901 12.1875 30.8826 12.1875 31.0776C12.1875 34.1064 14.6313 36.5626 17.6475 36.5626H20.1475C17.1313 36.5626 14.6875 34.1076 14.6875 31.0776V31.0776Z" fill="#D5DBE1"/>
<path d="M15.9376 19.0625L15.9114 19.0087L15.9401 18.7325C16.3226 15.055 19.4176 12.1887 23.1801 12.1887H20.6801C16.9176 12.1887 13.8226 15.055 13.4401 18.7325L13.4114 19.0087L13.4376 19.0625C16.8751 21.9074 20.3126 23.1287 23.7501 22.7362C21.1464 22.4387 18.5414 21.2175 15.9376 19.0625Z" fill="#AF1417"/>
<path d="M27.3537 37.5H17.6462C14.12 37.5 11.25 34.6187 11.25 31.0775C11.25 30.8512 11.2613 30.6262 11.2838 30.405L12.5075 18.6337C12.9437 14.425 16.4588 11.25 20.68 11.25H24.32C28.5412 11.25 32.055 14.425 32.4925 18.635L33.7162 30.4063C33.7387 30.6263 33.75 30.8512 33.75 31.0775C33.75 34.6187 30.88 37.5 27.3537 37.5V37.5ZM20.68 13.125C17.4225 13.125 14.7113 15.5762 14.3725 18.8287L13.1488 30.6C13.1325 30.7562 13.1237 30.9163 13.1237 31.0788C13.1237 33.5863 15.1525 35.6262 17.645 35.6262H27.3525C29.845 35.6262 31.8738 33.5863 31.8738 31.0788C31.8738 30.9175 31.865 30.7575 31.8488 30.6L30.625 18.83C30.2863 15.5775 27.5763 13.1263 24.3175 13.1263H20.68V13.125Z" fill="black"/>
<path d="M22.5001 23.7638C19.2726 23.7638 16.0451 22.4376 12.8389 19.7851L14.0351 18.3413C19.7314 23.0551 25.2676 23.0551 30.9639 18.3413L32.1601 19.7851C28.9551 22.4376 25.7276 23.7638 22.5001 23.7638Z" fill="black"/>
<path d="M18.125 21.875H20V37.1875H18.125V21.875Z" fill="black"/>
<path d="M25 22.1875H26.875V37.1875H25V22.1875Z" fill="black"/>
<path d="M26.25 12.8126H24.375V11.2501C24.375 10.2164 23.5337 9.37512 22.5 9.37512C21.4662 9.37512 20.625 10.2164 20.625 11.2501V12.8126H18.75V11.2501C18.75 9.18262 20.4325 7.50012 22.5 7.50012C24.5675 7.50012 26.25 9.18262 26.25 11.2501V12.8126Z" fill="black"/>
<path d="M33.5039 29.5761L31.6864 29.1161L35.5701 13.7636C35.6076 13.6236 35.6251 13.4861 35.6251 13.3486C35.6251 12.5361 35.0139 11.8749 34.2626 11.8749C34.0189 11.8749 33.7789 11.9449 33.5726 12.0774L29.0901 14.9436L28.0789 13.3636L32.5601 10.4986C33.0701 10.1724 33.6589 9.99988 34.2626 9.99988C36.0476 9.99988 37.5001 11.5024 37.5001 13.3486C37.5001 13.6461 37.4626 13.9436 37.3864 14.2311L33.5039 29.5761Z" fill="black"/>
<path d="M11.4962 29.5761L7.61125 14.2236C7.5375 13.9436 7.5 13.6461 7.5 13.3486C7.5 11.5024 8.9525 9.99988 10.7375 9.99988C11.3412 9.99988 11.93 10.1724 12.44 10.4999L16.92 13.3636L15.9087 14.9436L11.4287 12.0786C11.2212 11.9449 10.9812 11.8749 10.7375 11.8749C9.98625 11.8749 9.375 12.5361 9.375 13.3486C9.375 13.4861 9.3925 13.6236 9.4275 13.7561L13.3137 29.1161L11.4962 29.5761Z" fill="black"/>
<path d="M3 36H43V37.875H3V36Z" fill="black"/>
<path d="M34.875 5.25C33.8413 5.25 33 4.40875 33 3.375C33 2.34125 33.8413 1.5 34.875 1.5C35.9088 1.5 36.75 2.34125 36.75 3.375C36.75 4.40875 35.9088 5.25 34.875 5.25ZM34.875 2.75C34.5313 2.75 34.25 3.03 34.25 3.375C34.25 3.72 34.5313 4 34.875 4C35.2188 4 35.5 3.72 35.5 3.375C35.5 3.03 35.2188 2.75 34.875 2.75Z" fill="#A4AFC1"/>
</svg>
