<svg width="30" height="30" viewBox="0 0 30 30" fill="none" xmlns="http://www.w3.org/2000/svg">
<path d="M3.47253 23.0192C3.47253 17.255 0.486694 13.2967 0.486694 10.5192C0.486694 7.74166 2.08336 1.90833 14.8609 1.90833C27.6384 1.90833 29.5134 9.75583 29.5134 12.8108C29.5142 27.1167 3.47253 33.2275 3.47253 23.0192Z" fill="#EFEFEF"/>
<path d="M18.75 3.33337C18.0608 3.33337 17.5 2.77254 17.5 2.08337C17.5 1.39421 18.0608 0.833374 18.75 0.833374C19.4392 0.833374 20 1.39421 20 2.08337C20 2.77254 19.4392 3.33337 18.75 3.33337ZM18.75 1.66671C18.5208 1.66671 18.3333 1.85337 18.3333 2.08337C18.3333 2.31337 18.5208 2.50004 18.75 2.50004C18.9792 2.50004 19.1667 2.31337 19.1667 2.08337C19.1667 1.85337 18.9792 1.66671 18.75 1.66671Z" fill="#A4AFC1"/>
<path d="M22.7083 23.5417H7.29167C6.37083 23.5417 5.625 22.7958 5.625 21.875V9.375H24.375V21.875C24.375 22.7958 23.6292 23.5417 22.7083 23.5417Z" fill="#F3F3F1"/>
<path d="M24.375 9.37505H5.625V8.12504C5.625 7.20421 6.37083 6.45837 7.29167 6.45837H22.7083C23.6292 6.45837 24.375 7.20421 24.375 8.12504V9.37505Z" fill="#CA1D20"/>
<path d="M20.2175 16.875H18.5417V20.4441C18.5417 20.7733 18.2725 21.0416 17.9442 21.0416H12.0567C11.7275 21.0416 11.4591 20.7725 11.4591 20.4441V16.875H9.79248L15.0008 12.2916L20.2175 16.875Z" fill="#CA1D20"/>
<path d="M13.3334 20.4441V16.875H11.6667L15.9384 13.1158L15.0001 12.2916L9.79175 16.875H11.4584V20.4441C11.4584 20.7733 11.7276 21.0416 12.0559 21.0416H13.9309C13.6026 21.0416 13.3334 20.7725 13.3334 20.4441Z" fill="#AF1417"/>
<path d="M7.70833 21.875V9.375H5.625V21.875C5.625 22.7958 6.37083 23.5417 7.29167 23.5417H9.375C8.45417 23.5417 7.70833 22.7958 7.70833 21.875Z" fill="#D5DBE1"/>
<path d="M9.16667 6.45837H7.29167C6.37083 6.45837 5.625 7.20421 5.625 8.12504V9.37505H7.5V8.12504C7.5 7.20421 8.24584 6.45837 9.16667 6.45837Z" fill="#AF1417"/>
<path d="M22.7083 24.1666H7.29167C6.0275 24.1666 5 23.1391 5 21.8749V8.12492C5 6.86075 6.0275 5.83325 7.29167 5.83325H22.7083C23.9725 5.83325 25 6.86075 25 8.12492V21.8749C25 23.1391 23.9725 24.1666 22.7083 24.1666ZM7.29167 7.08325C6.7175 7.08325 6.25 7.55075 6.25 8.12492V21.8749C6.25 22.4491 6.7175 22.9166 7.29167 22.9166H22.7083C23.2825 22.9166 23.75 22.4491 23.75 21.8749V8.12492C23.75 7.55075 23.2825 7.08325 22.7083 7.08325H7.29167Z" fill="black"/>
<path d="M5.625 8.75012H24.375V10.0001H5.625V8.75012Z" fill="black"/>
<path d="M17.9433 21.6666H12.0567C11.3817 21.6666 10.8333 21.1183 10.8333 20.4441V17.4999H9.79166C9.53083 17.4999 9.29833 17.3391 9.20666 17.0958C9.11583 16.8524 9.18416 16.5774 9.37916 16.4058L14.5875 11.8224C14.8233 11.6149 15.1767 11.6141 15.4125 11.8224L20.63 16.4058C20.825 16.5774 20.8933 16.8524 20.8025 17.0958C20.7108 17.3391 20.4775 17.4999 20.2175 17.4999H19.1667V20.4441C19.1667 21.1183 18.6183 21.6666 17.9433 21.6666ZM11.4475 16.2499H11.4583C11.8033 16.2499 12.0833 16.5299 12.0833 16.8749V20.4441L17.9433 20.4166L17.9167 16.8749C17.9167 16.5299 18.1967 16.2499 18.5417 16.2499H18.5592L15 13.1241L11.4475 16.2499Z" fill="black"/>
<path d="M17.5 11.6667H18.75V15.3309H17.5V11.6667Z" fill="black"/>
<path d="M1.66663 22.9167H28.3333V24.1667H1.66663V22.9167Z" fill="black"/>
</svg>
