<svg width="45" height="45" viewBox="0 0 45 45" fill="none" xmlns="http://www.w3.org/2000/svg">
<path d="M5.20873 34.5288C5.20873 25.8825 0.72998 19.945 0.72998 15.7788C0.72998 11.6125 3.12498 2.86255 22.2912 2.86255C41.4575 2.86255 44.27 14.6338 44.27 19.2163C44.2712 40.675 5.20873 49.8413 5.20873 34.5288V34.5288Z" fill="#EFEFEF"/>
<path d="M28.125 5.00012C27.0913 5.00012 26.25 4.15887 26.25 3.12512C26.25 2.09137 27.0913 1.25012 28.125 1.25012C29.1588 1.25012 30 2.09137 30 3.12512C30 4.15887 29.1588 5.00012 28.125 5.00012ZM28.125 2.50012C27.7813 2.50012 27.5 2.78012 27.5 3.12512C27.5 3.47012 27.7813 3.75012 28.125 3.75012C28.4688 3.75012 28.75 3.47012 28.75 3.12512C28.75 2.78012 28.4688 2.50012 28.125 2.50012Z" fill="#A4AFC1"/>
<path d="M34.0625 35.3125H10.9375C9.55625 35.3125 8.4375 34.1938 8.4375 32.8125V14.0625H36.5625V32.8125C36.5625 34.1938 35.4438 35.3125 34.0625 35.3125Z" fill="#F3F3F1"/>
<path d="M36.5625 14.0626H8.4375V12.1876C8.4375 10.8064 9.55625 9.68762 10.9375 9.68762H34.0625C35.4438 9.68762 36.5625 10.8064 36.5625 12.1876V14.0626Z" fill="#CA1D20"/>
<path d="M30.3262 25.3124H27.8125V30.6661C27.8125 31.1599 27.4087 31.5624 26.9162 31.5624H18.085C17.5912 31.5624 17.1887 31.1586 17.1887 30.6661V25.3124H14.6887L22.5012 18.4374L30.3262 25.3124Z" fill="#CA1D20"/>
<path d="M20 30.6661V25.3124H17.5L23.9075 19.6736L22.5 18.4374L14.6875 25.3124H17.1875V30.6661C17.1875 31.1599 17.5913 31.5624 18.0838 31.5624H20.8962C20.4037 31.5624 20 31.1586 20 30.6661V30.6661Z" fill="#AF1417"/>
<path d="M11.5625 32.8125V14.0625H8.4375V32.8125C8.4375 34.1938 9.55625 35.3125 10.9375 35.3125H14.0625C12.6812 35.3125 11.5625 34.1938 11.5625 32.8125Z" fill="#D5DBE1"/>
<path d="M13.75 9.68762H10.9375C9.55625 9.68762 8.4375 10.8064 8.4375 12.1876V14.0626H11.25V12.1876C11.25 10.8064 12.3688 9.68762 13.75 9.68762Z" fill="#AF1417"/>
<path d="M34.0625 36.2499H10.9375C9.04125 36.2499 7.5 34.7086 7.5 32.8124V12.1874C7.5 10.2911 9.04125 8.74988 10.9375 8.74988H34.0625C35.9588 8.74988 37.5 10.2911 37.5 12.1874V32.8124C37.5 34.7086 35.9588 36.2499 34.0625 36.2499ZM10.9375 10.6249C10.0763 10.6249 9.375 11.3261 9.375 12.1874V32.8124C9.375 33.6736 10.0763 34.3749 10.9375 34.3749H34.0625C34.9238 34.3749 35.625 33.6736 35.625 32.8124V12.1874C35.625 11.3261 34.9238 10.6249 34.0625 10.6249H10.9375Z" fill="black"/>
<path d="M8.4375 13.1251H36.5625V15.0001H8.4375V13.1251Z" fill="black"/>
<path d="M26.915 32.4999H18.085C17.0725 32.4999 16.25 31.6774 16.25 30.6661V26.2499H14.6875C14.2962 26.2499 13.9475 26.0086 13.81 25.6436C13.6737 25.2786 13.7762 24.8662 14.0687 24.6087L21.8812 17.7337C22.235 17.4224 22.765 17.4212 23.1187 17.7337L30.945 24.6087C31.2375 24.8662 31.34 25.2786 31.2037 25.6436C31.0662 26.0086 30.7162 26.2499 30.3262 26.2499H28.75V30.6661C28.75 31.6774 27.9275 32.4999 26.915 32.4999V32.4999ZM17.1712 24.3749H17.1875C17.705 24.3749 18.125 24.7949 18.125 25.3124V30.6661L26.915 30.6249L26.875 25.3124C26.875 24.7949 27.295 24.3749 27.8125 24.3749H27.8387L22.5 19.6862L17.1712 24.3749Z" fill="black"/>
<path d="M26.25 17.5001H28.125V22.9964H26.25V17.5001Z" fill="black"/>
<path d="M2.5 34.3751H42.5V36.2501H2.5V34.3751Z" fill="black"/>
</svg>
