<svg width="45" height="45" viewBox="0 0 45 45" fill="none" xmlns="http://www.w3.org/2000/svg">
<path d="M10.4712 5.20873C19.1175 5.20873 25.055 0.72998 29.2212 0.72998C33.3875 0.72998 42.1375 3.12498 42.1375 22.2912C42.1375 41.4575 30.3662 44.27 25.7837 44.27C4.325 44.2712 -4.84125 5.20873 10.4712 5.20873V5.20873Z" fill="#EFEFEF"/>
<path d="M39.7346 31.6492L40.6185 30.7653L42.3863 32.5331L41.5024 33.4169L39.7346 31.6492Z" fill="#A4AFC1"/>
<path d="M34.8755 32.9839L36.6433 31.2161L37.5271 32.1L35.7594 33.8678L34.8755 32.9839Z" fill="#A4AFC1"/>
<path d="M39.958 27.9022L41.7258 26.1345L42.6096 27.0183L40.8419 28.7861L39.958 27.9022Z" fill="#A4AFC1"/>
<path d="M34.0625 26.5625C35.4438 26.5625 36.5625 25.4438 36.5625 24.0625V10.9375C36.5625 9.55625 35.4438 8.4375 34.0625 8.4375H10.9375C9.55625 8.4375 8.4375 9.55625 8.4375 10.9375V24.0625C8.4375 25.4438 9.55625 26.5625 10.9375 26.5625H34.0625Z" fill="#F3F3F1"/>
<path d="M22.5 16.5625C23.363 16.5625 24.0625 15.8629 24.0625 15C24.0625 14.1371 23.363 13.4375 22.5 13.4375C21.6371 13.4375 20.9375 14.1371 20.9375 15C20.9375 15.8629 21.6371 16.5625 22.5 16.5625Z" fill="#CA1D20"/>
<path d="M26.5625 21.5625C26.5625 20.5275 25.7225 19.6875 24.6875 19.6875H20.3125C19.2775 19.6875 18.4375 20.5275 18.4375 21.5625V24.6875H26.5625V21.5625Z" fill="#CA1D20"/>
<path d="M26.5625 36.5625H18.4375L17.1875 24.6875H27.8125L26.5625 36.5625Z" fill="#CA1D20"/>
<path d="M11.25 24.0625V10.9375C11.25 9.55625 12.3688 8.4375 13.75 8.4375H10.9375C9.55625 8.4375 8.4375 9.55625 8.4375 10.9375V24.0625C8.4375 25.4438 9.55625 26.5625 10.9375 26.5625H13.75C12.3688 26.5625 11.25 25.4438 11.25 24.0625Z" fill="#D5DBE1"/>
<path d="M23.75 15C23.75 14.7625 23.8113 14.5438 23.9063 14.3425C23.6563 13.8113 23.125 13.4375 22.5 13.4375C21.6375 13.4375 20.9375 14.1375 20.9375 15C20.9375 15.8625 21.6375 16.5625 22.5 16.5625C23.125 16.5625 23.6563 16.1888 23.9063 15.6575C23.8113 15.4563 23.75 15.2375 23.75 15Z" fill="#AF1417"/>
<path d="M23.125 19.6875H20.3125C19.2775 19.6875 18.4375 20.5275 18.4375 21.5625V24.6875H21.25V21.5625C21.25 20.5275 22.09 19.6875 23.125 19.6875Z" fill="#AF1417"/>
<path d="M17.1875 24.6875L18.4375 36.5625H21.25L20 24.6875H17.1875Z" fill="#AF1417"/>
<path d="M34.0625 27.5H33.4375V25.625H34.0625C34.9237 25.625 35.625 24.9238 35.625 24.0625V10.9375C35.625 10.0763 34.9237 9.375 34.0625 9.375H10.9375C10.0762 9.375 9.375 10.0763 9.375 10.9375V24.0625C9.375 24.9238 10.0762 25.625 10.9375 25.625H11.5625V27.5H10.9375C9.04125 27.5 7.5 25.9588 7.5 24.0625V10.9375C7.5 9.04125 9.04125 7.5 10.9375 7.5H34.0625C35.9587 7.5 37.5 9.04125 37.5 10.9375V24.0625C37.5 25.9588 35.9587 27.5 34.0625 27.5Z" fill="black"/>
<path d="M13.75 23.7501H31.25V25.6251H13.75V23.7501Z" fill="black"/>
<path d="M22.5 17.5001C21.1213 17.5001 20 16.3789 20 15.0001C20 13.6214 21.1213 12.5001 22.5 12.5001C23.8788 12.5001 25 13.6214 25 15.0001C25 16.3789 23.8788 17.5001 22.5 17.5001ZM22.5 14.3751C22.1563 14.3751 21.875 14.6551 21.875 15.0001C21.875 15.3451 22.1563 15.6251 22.5 15.6251C22.8438 15.6251 23.125 15.3451 23.125 15.0001C23.125 14.6551 22.8438 14.3751 22.5 14.3751Z" fill="black"/>
<path d="M27.5 22.4999H25.625V21.5624C25.625 21.0449 25.2038 20.6249 24.6875 20.6249H20.3125C19.7963 20.6249 19.375 21.0449 19.375 21.5624V22.4999H17.5V21.5624C17.5 20.0111 18.7625 18.7499 20.3125 18.7499H24.6875C26.2375 18.7499 27.5 20.0111 27.5 21.5624V22.4999Z" fill="black"/>
<path d="M2.5 35.625H42.5V37.5H2.5V35.625Z" fill="black"/>
<path d="M16.2708 24.7922L18.1364 24.5954L19.3901 36.4757L17.5245 36.6726L16.2708 24.7922Z" fill="black"/>
<path d="M25.6494 36.4596L26.9031 24.5793L28.7687 24.7761L27.515 36.6565L25.6494 36.4596Z" fill="black"/>
</svg>
