<svg width="30" height="30" viewBox="0 0 30 30" fill="none" xmlns="http://www.w3.org/2000/svg">
<path d="M6.98079 3.47253C12.745 3.47253 16.7033 0.486694 19.4808 0.486694C22.2583 0.486694 28.0916 2.08336 28.0916 14.8609C28.0916 27.6384 20.2441 29.5134 17.1891 29.5134C2.88329 29.5142 -3.22754 3.47253 6.98079 3.47253Z" fill="#EFEFEF"/>
<path d="M26.4897 21.0994L27.079 20.5101L28.2575 21.6886L27.6683 22.2779L26.4897 21.0994Z" fill="#A4AFC1"/>
<path d="M23.2504 21.9891L24.4289 20.8106L25.0181 21.3999L23.8396 22.5784L23.2504 21.9891Z" fill="#A4AFC1"/>
<path d="M26.6387 18.6014L27.8172 17.4229L28.4064 18.0122L27.2279 19.1907L26.6387 18.6014Z" fill="#A4AFC1"/>
<path d="M22.7083 17.7083C23.6292 17.7083 24.375 16.9625 24.375 16.0417V7.29167C24.375 6.37083 23.6292 5.625 22.7083 5.625H7.29167C6.37083 5.625 5.625 6.37083 5.625 7.29167V16.0417C5.625 16.9625 6.37083 17.7083 7.29167 17.7083H22.7083Z" fill="#F3F3F1"/>
<path d="M15 11.0416C15.5753 11.0416 16.0417 10.5752 16.0417 9.99992C16.0417 9.42462 15.5753 8.95825 15 8.95825C14.4247 8.95825 13.9584 9.42462 13.9584 9.99992C13.9584 10.5752 14.4247 11.0416 15 11.0416Z" fill="#CA1D20"/>
<path d="M17.7083 14.375C17.7083 13.685 17.1483 13.125 16.4583 13.125H13.5416C12.8516 13.125 12.2916 13.685 12.2916 14.375V16.4583H17.7083V14.375Z" fill="#CA1D20"/>
<path d="M17.7084 24.3749H12.2917L11.4584 16.4583H18.5417L17.7084 24.3749Z" fill="#CA1D20"/>
<path d="M7.5 16.0417V7.29167C7.5 6.37083 8.24584 5.625 9.16667 5.625H7.29167C6.37083 5.625 5.625 6.37083 5.625 7.29167V16.0417C5.625 16.9625 6.37083 17.7083 7.29167 17.7083H9.16667C8.24584 17.7083 7.5 16.9625 7.5 16.0417Z" fill="#D5DBE1"/>
<path d="M15.8334 9.99992C15.8334 9.84159 15.8742 9.69575 15.9375 9.56159C15.7709 9.20742 15.4167 8.95825 15 8.95825C14.425 8.95825 13.9584 9.42492 13.9584 9.99992C13.9584 10.5749 14.425 11.0416 15 11.0416C15.4167 11.0416 15.7709 10.7924 15.9375 10.4383C15.8742 10.3041 15.8334 10.1583 15.8334 9.99992Z" fill="#AF1417"/>
<path d="M15.4166 13.125H13.5416C12.8516 13.125 12.2916 13.685 12.2916 14.375V16.4583H14.1666V14.375C14.1666 13.685 14.7266 13.125 15.4166 13.125Z" fill="#AF1417"/>
<path d="M11.4584 16.4583L12.2917 24.3749H14.1667L13.3334 16.4583H11.4584Z" fill="#AF1417"/>
<path d="M22.7083 18.3333H22.2917V17.0833H22.7083C23.2825 17.0833 23.75 16.6158 23.75 16.0417V7.29167C23.75 6.7175 23.2825 6.25 22.7083 6.25H7.29167C6.7175 6.25 6.25 6.7175 6.25 7.29167V16.0417C6.25 16.6158 6.7175 17.0833 7.29167 17.0833H7.70833V18.3333H7.29167C6.0275 18.3333 5 17.3058 5 16.0417V7.29167C5 6.0275 6.0275 5 7.29167 5H22.7083C23.9725 5 25 6.0275 25 7.29167V16.0417C25 17.3058 23.9725 18.3333 22.7083 18.3333Z" fill="black"/>
<path d="M9.16663 15.8334H20.8333V17.0834H9.16663V15.8334Z" fill="black"/>
<path d="M15 11.6667C14.0809 11.6667 13.3334 10.9192 13.3334 10C13.3334 9.08087 14.0809 8.33337 15 8.33337C15.9192 8.33337 16.6667 9.08087 16.6667 10C16.6667 10.9192 15.9192 11.6667 15 11.6667ZM15 9.58338C14.7709 9.58338 14.5834 9.77004 14.5834 10C14.5834 10.23 14.7709 10.4167 15 10.4167C15.2292 10.4167 15.4167 10.23 15.4167 10C15.4167 9.77004 15.2292 9.58338 15 9.58338Z" fill="black"/>
<path d="M18.3334 15H17.0834V14.375C17.0834 14.03 16.8026 13.75 16.4584 13.75H13.5418C13.1976 13.75 12.9167 14.03 12.9167 14.375V15H11.6667V14.375C11.6667 13.3408 12.5084 12.5 13.5418 12.5H16.4584C17.4918 12.5 18.3334 13.3408 18.3334 14.375V15Z" fill="black"/>
<path d="M1.66663 23.75H28.3333V25H1.66663V23.75Z" fill="black"/>
<path d="M10.8472 16.5282L12.0909 16.3969L12.9267 24.3172L11.683 24.4484L10.8472 16.5282Z" fill="black"/>
<path d="M17.0996 24.3064L17.9354 16.3862L19.1791 16.5174L18.3434 24.4376L17.0996 24.3064Z" fill="black"/>
</svg>
