<svg width="45" height="44" viewBox="0 0 45 44" fill="none" xmlns="http://www.w3.org/2000/svg">
<path d="M11.8966 9.06615C9.78681 16.6672 4.29447 20.8223 3.27759 24.4857C2.26071 28.149 2.28759 36.4103 19.5886 40.9662C36.8897 45.522 42.3014 35.8423 43.4188 31.8124C48.6563 12.9469 15.6333 -4.39649 11.8966 9.06615V9.06615Z" fill="#EFEFEF"/>
<path d="M37.8538 11.5544H40.1914V12.6928H37.8538V11.5544Z" fill="#A4AFC1"/>
<path d="M31.1331 11.5544H33.4707V12.6928H31.1331V11.5544Z" fill="#A4AFC1"/>
<path d="M35.2239 7.57019H36.3927V9.84698H35.2239V7.57019Z" fill="#A4AFC1"/>
<path d="M35.2239 14.4005H36.3927V16.6773H35.2239V14.4005Z" fill="#A4AFC1"/>
<path d="M20.4546 20.0926C23.1981 20.0926 25.4221 17.9265 25.4221 15.2544C25.4221 12.5824 23.1981 10.4163 20.4546 10.4163C17.7111 10.4163 15.4871 12.5824 15.4871 15.2544C15.4871 17.9265 17.7111 20.0926 20.4546 20.0926Z" fill="#CA1D20"/>
<path d="M25.4222 24.077H15.4871C12.904 24.077 10.8118 26.1148 10.8118 28.6306V32.615H20.7468H25.4222V24.077Z" fill="#F3F3F1"/>
<path d="M24.8376 30.9073V33.6918C24.8376 34.0835 25.0434 34.4603 25.3882 34.6629C28.4727 36.4843 31.1388 36.4843 34.2234 34.6629C34.5682 34.4591 34.7739 34.0835 34.7739 33.6918V30.9073H24.8376Z" fill="#CA1D20"/>
<path d="M22.5002 29.4845L29.8054 26.3539L37.1106 29.4845L29.8054 32.615L22.5002 29.4845Z" fill="#CA1D20"/>
<path d="M17.8247 15.2544C17.8247 12.9765 19.4471 11.0788 21.6234 10.5654C21.2471 10.4766 20.859 10.4163 20.4546 10.4163C17.7113 10.4163 15.4871 12.5826 15.4871 15.2544C15.4871 17.9262 17.7113 20.0926 20.4546 20.0926C20.859 20.0926 21.2471 20.0323 21.6234 19.9435C19.4471 19.4301 17.8247 17.5324 17.8247 15.2544Z" fill="#AF1417"/>
<path d="M17.8247 24.077H15.4871C12.904 24.077 10.8118 26.1148 10.8118 28.6306V32.615H13.1494V28.6306C13.1494 26.1148 15.2416 24.077 17.8247 24.077Z" fill="#D5DBE1"/>
<path d="M27.7258 34.664C27.381 34.4603 27.1753 34.0846 27.1753 33.693V30.9073H24.8376V33.6919C24.8376 34.0835 25.0434 34.4603 25.3882 34.6629C27.3471 35.8206 29.1378 36.2362 30.974 35.9231C29.9197 35.7444 28.8502 35.3289 27.7258 34.664Z" fill="#AF1417"/>
<path d="M27.1756 29.4845L32.1431 27.3557L29.8054 26.3539L22.5002 29.4845L29.8054 32.615L32.1431 31.6133L27.1756 29.4845Z" fill="#AF1417"/>
<path d="M20.4548 20.9464C17.2323 20.9464 14.6106 18.393 14.6106 15.2545C14.6106 12.1159 17.2323 9.5625 20.4548 9.5625C23.6772 9.5625 26.2989 12.1159 26.2989 15.2545C26.2989 18.393 23.6772 20.9464 20.4548 20.9464ZM20.4548 11.2701C18.1989 11.2701 16.3638 13.0574 16.3638 15.2545C16.3638 17.4516 18.1989 19.2388 20.4548 19.2388C22.7106 19.2388 24.5457 17.4516 24.5457 15.2545C24.5457 13.0574 22.7106 11.2701 20.4548 11.2701Z" fill="black"/>
<path d="M21.6234 33.4688H10.8117C10.3278 33.4688 9.93506 33.0863 9.93506 32.615V28.6306C9.93506 25.6492 12.4258 23.2233 15.487 23.2233H26.2987V24.9309H15.487C13.3925 24.9309 11.6883 26.5906 11.6883 28.6306V31.7612H21.6234V33.4688Z" fill="black"/>
<path d="M29.8053 36.8862C28.2122 36.8862 26.6179 36.3888 24.9337 35.3938C24.3329 35.0398 23.9612 34.3886 23.9612 33.6919V30.0536H25.7144V33.6919C25.7144 33.7909 25.7659 33.8877 25.8418 33.9332C28.6564 35.5964 30.9531 35.5953 33.7677 33.9332C33.8436 33.8877 33.8951 33.7909 33.8951 33.6919V30.0536H35.6495V33.6919C35.6495 34.3875 35.2778 35.0398 34.677 35.3938C32.9927 36.3888 31.3985 36.8862 29.8053 36.8862V36.8862Z" fill="black"/>
<path d="M29.8051 33.4687C29.6847 33.4687 29.5643 33.4448 29.4521 33.397L22.1469 30.2665C21.829 30.1298 21.6233 29.8225 21.6233 29.4844C21.6233 29.1463 21.829 28.8389 22.1469 28.7023L29.4521 25.5717C29.6754 25.475 29.9337 25.475 30.1581 25.5717L37.4633 28.7023C37.7812 28.8389 37.9869 29.1463 37.9869 29.4844C37.9869 29.8225 37.7812 30.1298 37.4633 30.2665L30.1581 33.397C30.0459 33.4448 29.9255 33.4687 29.8051 33.4687ZM24.6763 29.4844L29.8051 31.6826L34.9339 29.4844L29.8051 27.2861L24.6763 29.4844Z" fill="black"/>
<path d="M5.72729 35.5178H43.1299V37.2254H5.72729V35.5178Z" fill="black"/>
</svg>
