<svg width="30" height="30" viewBox="0 0 30 30" fill="none" xmlns="http://www.w3.org/2000/svg">
<g clip-path="url(#clip0)">
<path d="M6.39832 4.63663C4.89415 10.2008 0.978316 13.2425 0.253317 15.9241C-0.471683 18.6058 -0.452517 24.6533 11.8825 27.9883C24.2175 31.3233 28.0758 24.2375 28.8725 21.2875C32.6066 7.47746 9.06248 -5.21837 6.39832 4.63663Z" fill="#EFEFEF"/>
<path d="M24.9049 6.45825H26.5716V7.29159H24.9049V6.45825Z" fill="#A4AFC1"/>
<path d="M20.1133 6.45825H21.7799V7.29159H20.1133V6.45825Z" fill="#A4AFC1"/>
<path d="M23.0299 3.54163H23.8632V5.20829H23.0299V3.54163Z" fill="#A4AFC1"/>
<path d="M23.0299 8.54163H23.8632V10.2083H23.0299V8.54163Z" fill="#A4AFC1"/>
<path d="M12.4999 12.7083C14.4559 12.7083 16.0416 11.1227 16.0416 9.16667C16.0416 7.21066 14.4559 5.625 12.4999 5.625C10.5439 5.625 8.95825 7.21066 8.95825 9.16667C8.95825 11.1227 10.5439 12.7083 12.4999 12.7083Z" fill="#CA1D20"/>
<path d="M16.0417 15.625H8.95834C7.11667 15.625 5.625 17.1167 5.625 18.9583V21.875H12.7083H16.0417V15.625Z" fill="#F3F3F1"/>
<path d="M15.625 20.625V22.6633C15.625 22.95 15.7717 23.2258 16.0175 23.3742C18.2167 24.7075 20.1175 24.7075 22.3167 23.3742C22.5625 23.225 22.7092 22.95 22.7092 22.6633V20.625H15.625Z" fill="#CA1D20"/>
<path d="M13.9584 19.5834L19.1667 17.2917L24.3751 19.5834L19.1667 21.8751L13.9584 19.5834Z" fill="#CA1D20"/>
<path d="M10.6249 9.16667C10.6249 7.49917 11.7816 6.11 13.3333 5.73417C13.0649 5.66917 12.7883 5.625 12.4999 5.625C10.5441 5.625 8.95825 7.21084 8.95825 9.16667C8.95825 11.1225 10.5441 12.7083 12.4999 12.7083C12.7883 12.7083 13.0649 12.6642 13.3333 12.5992C11.7816 12.2233 10.6249 10.8342 10.6249 9.16667Z" fill="#AF1417"/>
<path d="M10.625 15.625H8.95833C7.11666 15.625 5.625 17.1167 5.625 18.9583V21.875H7.29166V18.9583C7.29166 17.1167 8.78333 15.625 10.625 15.625Z" fill="#D5DBE1"/>
<path d="M17.6842 23.375C17.4383 23.2258 17.2917 22.9508 17.2917 22.6642V20.625H15.625V22.6633C15.625 22.95 15.7717 23.2258 16.0175 23.3742C17.4142 24.2217 18.6908 24.5258 20 24.2967C19.2483 24.1658 18.4858 23.8617 17.6842 23.375Z" fill="#AF1417"/>
<path d="M17.2917 19.5834L20.8334 18.0251L19.1667 17.2917L13.9584 19.5834L19.1667 21.8751L20.8334 21.1417L17.2917 19.5834Z" fill="#AF1417"/>
<path d="M12.5 13.3333C10.2025 13.3333 8.33337 11.4642 8.33337 9.16667C8.33337 6.86917 10.2025 5 12.5 5C14.7975 5 16.6667 6.86917 16.6667 9.16667C16.6667 11.4642 14.7975 13.3333 12.5 13.3333ZM12.5 6.25C10.8917 6.25 9.58337 7.55833 9.58337 9.16667C9.58337 10.775 10.8917 12.0833 12.5 12.0833C14.1084 12.0833 15.4167 10.775 15.4167 9.16667C15.4167 7.55833 14.1084 6.25 12.5 6.25Z" fill="black"/>
<path d="M13.3333 22.5H5.625C5.28 22.5 5 22.22 5 21.875V18.9583C5 16.7758 6.77583 15 8.95833 15H16.6667V16.25H8.95833C7.465 16.25 6.25 17.465 6.25 18.9583V21.25H13.3333V22.5Z" fill="black"/>
<path d="M19.1667 25.0017C18.0308 25.0017 16.8942 24.6375 15.6933 23.9092C15.265 23.65 15 23.1733 15 22.6633V20H16.25V22.6633C16.25 22.7358 16.2867 22.8067 16.3408 22.84C18.3475 24.0575 19.985 24.0567 21.9917 22.84C22.0458 22.8067 22.0825 22.7358 22.0825 22.6633V20H23.3333V22.6633C23.3333 23.1725 23.0683 23.65 22.64 23.9092C21.4392 24.6375 20.3025 25.0017 19.1667 25.0017Z" fill="black"/>
<path d="M19.1667 22.5C19.0809 22.5 18.995 22.4825 18.915 22.4475L13.7067 20.1558C13.48 20.0558 13.3334 19.8308 13.3334 19.5833C13.3334 19.3358 13.48 19.1108 13.7067 19.0108L18.915 16.7191C19.0742 16.6483 19.2584 16.6483 19.4184 16.7191L24.6267 19.0108C24.8534 19.1108 25 19.3358 25 19.5833C25 19.8308 24.8534 20.0558 24.6267 20.1558L19.4184 22.4475C19.3384 22.4825 19.2525 22.5 19.1667 22.5ZM15.51 19.5833L19.1667 21.1925L22.8234 19.5833L19.1667 17.9741L15.51 19.5833Z" fill="black"/>
</g>
<defs>
<clipPath id="clip0">
<rect width="30" height="30" fill="white"/>
</clipPath>
</defs>
</svg>
