<svg width="30" height="30" viewBox="0 0 30 30" fill="none" xmlns="http://www.w3.org/2000/svg">
<g clip-path="url(#clip0)">
<path d="M0.835845 11.9258C3.54668 17.0124 2.77251 21.9099 4.07835 24.3616C5.38418 26.8133 9.53751 31.2099 20.8142 25.2016C32.0908 19.1933 30.0558 11.3858 28.6183 8.68909C21.8917 -3.93674 -3.96499 2.91659 0.835845 11.9258Z" fill="#EFEFEF"/>
<path d="M4.84082 26.4583C4.15165 26.4583 3.59082 25.8974 3.59082 25.2083C3.59082 24.5191 4.15165 23.9583 4.84082 23.9583C5.52998 23.9583 6.09082 24.5191 6.09082 25.2083C6.09082 25.8974 5.52998 26.4583 4.84082 26.4583ZM4.84082 24.7916C4.61165 24.7916 4.42415 24.9783 4.42415 25.2083C4.42415 25.4383 4.61165 25.6249 4.84082 25.6249C5.06999 25.6249 5.25748 25.4383 5.25748 25.2083C5.25748 24.9783 5.06999 24.7916 4.84082 24.7916Z" fill="#A4AFC1"/>
<path d="M11.765 24.375C9.755 24.375 8.125 22.7384 8.125 20.7192C8.125 20.5892 8.13167 20.4617 8.145 20.335L8.96083 12.4884C9.21583 10.0367 11.2792 8.12585 13.7875 8.12585H16.2142C18.7225 8.12585 20.7858 10.0367 21.0408 12.4884L21.8567 20.335C21.87 20.4609 21.8767 20.5892 21.8767 20.7192C21.8767 22.7384 20.2475 24.375 18.2367 24.375H11.765Z" fill="#F3F3F1" stroke="#F3F3F1" stroke-width="14.2222" stroke-miterlimit="10"/>
<path d="M11.765 24.375C9.755 24.375 8.125 22.7384 8.125 20.7192C8.125 20.5892 8.13167 20.4617 8.145 20.335L8.96083 12.4884C9.21583 10.0367 11.2792 8.12585 13.7875 8.12585H16.2142C18.7225 8.12585 20.7858 10.0367 21.0408 12.4884L21.8567 20.335C21.87 20.4609 21.8767 20.5892 21.8767 20.7192C21.8767 22.7384 20.2475 24.375 18.2367 24.375H11.765Z" fill="#F3F3F1"/>
<path d="M16.2133 8.125H13.7866C11.2783 8.125 9.21496 10.0358 8.95996 12.4875L8.9408 12.6717L8.9583 12.7075C12.9858 16.0408 17.0141 16.0408 21.0416 12.7075L21.06 12.6808L21.04 12.4875C20.785 10.0358 18.7216 8.125 16.2133 8.125Z" fill="#CA1D20"/>
<path d="M9.79167 20.7183C9.79167 20.5883 9.79834 20.4608 9.81167 20.3342L10.6275 12.4875C10.8825 10.0358 12.9458 8.125 15.4542 8.125H13.7875C11.2792 8.125 9.21583 10.0358 8.96083 12.4875L8.145 20.3342C8.13167 20.46 8.125 20.5883 8.125 20.7183C8.125 22.7375 9.75417 24.375 11.765 24.375H13.4317C11.4208 24.375 9.79167 22.7383 9.79167 20.7183Z" fill="#D5DBE1"/>
<path d="M10.625 12.7083L10.6075 12.6725L10.6266 12.4883C10.8816 10.0367 12.945 8.12585 15.4533 8.12585H13.7866C11.2783 8.12585 9.21496 10.0367 8.95996 12.4883L8.9408 12.6725L8.9583 12.7083C11.25 14.605 13.5416 15.4192 15.8333 15.1575C14.0975 14.9592 12.3608 14.145 10.625 12.7083Z" fill="#AF1417"/>
<path d="M18.2358 25H11.7642C9.41333 25 7.5 23.0792 7.5 20.7183C7.5 20.5675 7.5075 20.4175 7.5225 20.27L8.33833 12.4225C8.62917 9.61667 10.9725 7.5 13.7867 7.5H16.2133C19.0275 7.5 21.37 9.61667 21.6617 12.4233L22.4775 20.2708C22.4925 20.4175 22.5 20.5675 22.5 20.7183C22.5 23.0792 20.5867 25 18.2358 25ZM13.7867 8.75C11.615 8.75 9.8075 10.3842 9.58167 12.5525L8.76583 20.4C8.755 20.5042 8.74917 20.6108 8.74917 20.7192C8.74917 22.3908 10.1017 23.7508 11.7633 23.7508H18.235C19.8967 23.7508 21.2492 22.3908 21.2492 20.7192C21.2492 20.6117 21.2433 20.505 21.2325 20.4L20.4167 12.5533C20.1908 10.385 18.3842 8.75083 16.2117 8.75083H13.7867V8.75Z" fill="black"/>
<path d="M15 15.8425C12.8484 15.8425 10.6967 14.9584 8.5592 13.19L9.3567 12.2275C13.1542 15.37 16.845 15.37 20.6426 12.2275L21.4401 13.19C19.3034 14.9584 17.1517 15.8425 15 15.8425Z" fill="black"/>
<path d="M12.0834 14.5833H13.3334V24.7916H12.0834V14.5833Z" fill="black"/>
<path d="M16.6666 14.7916H17.9166V24.7916H16.6666V14.7916Z" fill="black"/>
<path d="M17.5 8.54179H16.25V7.50012C16.25 6.81096 15.6892 6.25012 15 6.25012C14.3108 6.25012 13.75 6.81096 13.75 7.50012V8.54179H12.5V7.50012C12.5 6.12179 13.6217 5.00012 15 5.00012C16.3783 5.00012 17.5 6.12179 17.5 7.50012V8.54179Z" fill="black"/>
<path d="M22.3358 19.7175L21.1241 19.4108L23.7133 9.1758C23.7383 9.08246 23.75 8.99079 23.75 8.89913C23.75 8.35746 23.3425 7.91663 22.8416 7.91663C22.6791 7.91663 22.5191 7.96329 22.3816 8.05163L19.3933 9.96246L18.7191 8.90913L21.7066 6.99913C22.0466 6.78163 22.4391 6.66663 22.8416 6.66663C24.0316 6.66663 25 7.66829 25 8.89913C25 9.09746 24.975 9.2958 24.9241 9.48746L22.3358 19.7175Z" fill="black"/>
<path d="M7.66416 19.7175L5.07417 9.48246C5.025 9.2958 5 9.09746 5 8.89913C5 7.66829 5.96833 6.66663 7.15833 6.66663C7.56083 6.66663 7.95333 6.78163 8.29333 6.99996L11.28 8.90913L10.6058 9.96246L7.61916 8.05246C7.48083 7.96329 7.32083 7.91663 7.15833 7.91663C6.6575 7.91663 6.25 8.35746 6.25 8.89913C6.25 8.99079 6.26167 9.08246 6.285 9.1708L8.87583 19.4108L7.66416 19.7175Z" fill="black"/>
<path d="M2 24H28.6667V25.25H2V24Z" fill="black"/>
<path d="M23.25 3.5C22.5608 3.5 22 2.93917 22 2.25C22 1.56083 22.5608 1 23.25 1C23.9392 1 24.5 1.56083 24.5 2.25C24.5 2.93917 23.9392 3.5 23.25 3.5ZM23.25 1.83333C23.0208 1.83333 22.8333 2.02 22.8333 2.25C22.8333 2.48 23.0208 2.66667 23.25 2.66667C23.4792 2.66667 23.6667 2.48 23.6667 2.25C23.6667 2.02 23.4792 1.83333 23.25 1.83333Z" fill="#A4AFC1"/>
</g>
<defs>
<clipPath id="clip0">
<rect width="30" height="30" fill="white"/>
</clipPath>
</defs>
</svg>
