<svg width="25" height="25" viewBox="0 0 25 25" fill="none" xmlns="http://www.w3.org/2000/svg">
<g clip-path="url(#clip0)">
<path d="M21.0938 11.4584H3.64587C2.78442 11.4584 2.08337 10.7574 2.08337 9.89592V6.77092C2.08337 5.3355 3.25108 4.16675 4.68754 4.16675H20.0521C21.4886 4.16675 22.6563 5.3355 22.6563 6.77092V9.89592C22.6563 10.7574 21.9552 11.4584 21.0938 11.4584ZM4.68754 5.20841C3.82608 5.20841 3.12504 5.90946 3.12504 6.77092V9.89592C3.12504 10.1834 3.35942 10.4167 3.64587 10.4167H21.0938C21.3802 10.4167 21.6146 10.1834 21.6146 9.89592V6.77092C21.6146 5.90946 20.9136 5.20841 20.0521 5.20841H4.68754Z" fill="black"/>
<path d="M18.2291 24.9998H6.77079C5.33433 24.9998 4.16663 23.8311 4.16663 22.3957V10.9373C4.16663 10.6498 4.39996 10.4165 4.68746 10.4165C4.97496 10.4165 5.20829 10.6498 5.20829 10.9373V22.3957C5.20829 23.2571 5.90933 23.9582 6.77079 23.9582H18.2291C19.0906 23.9582 19.7916 23.2571 19.7916 22.3957V10.9373C19.7916 10.6498 20.025 10.4165 20.3125 10.4165C20.6 10.4165 20.8333 10.6498 20.8333 10.9373V22.3957C20.8333 23.8311 19.6656 24.9998 18.2291 24.9998Z" fill="black"/>
<path d="M9.89587 5.20833C9.60837 5.20833 9.37504 4.975 9.37504 4.6875V1.5625C9.37504 1.275 9.14067 1.04167 8.85421 1.04167H6.77087C6.48442 1.04167 6.25004 1.275 6.25004 1.5625V4.6875C6.25004 4.975 6.01671 5.20833 5.72921 5.20833C5.44171 5.20833 5.20837 4.975 5.20837 4.6875V1.5625C5.20837 0.701042 5.90942 0 6.77087 0H8.85421C9.71567 0 10.4167 0.701042 10.4167 1.5625V4.6875C10.4167 4.975 10.1834 5.20833 9.89587 5.20833Z" fill="black"/>
<path d="M19.2709 5.20833C18.9834 5.20833 18.75 4.975 18.75 4.6875V1.5625C18.75 1.275 18.5157 1.04167 18.2292 1.04167H16.1459C15.8594 1.04167 15.625 1.275 15.625 1.5625V4.6875C15.625 4.975 15.3917 5.20833 15.1042 5.20833C14.8167 5.20833 14.5834 4.975 14.5834 4.6875V1.5625C14.5834 0.701042 15.2844 0 16.1459 0H18.2292C19.0907 0 19.7917 0.701042 19.7917 1.5625V4.6875C19.7917 4.975 19.5584 5.20833 19.2709 5.20833Z" fill="black"/>
<path d="M9.89584 13.5416C9.60833 13.5416 9.375 13.3082 9.375 13.0207V8.85408C9.375 8.56658 9.60833 8.33325 9.89584 8.33325C10.1833 8.33325 10.4167 8.56658 10.4167 8.85408V13.0207C10.4167 13.3082 10.1833 13.5416 9.89584 13.5416Z" fill="black"/>
<path d="M15.1042 13.5416C14.8167 13.5416 14.5834 13.3082 14.5834 13.0207V8.85408C14.5834 8.56658 14.8167 8.33325 15.1042 8.33325C15.3917 8.33325 15.625 8.56658 15.625 8.85408V13.0207C15.625 13.3082 15.3917 13.5416 15.1042 13.5416Z" fill="black"/>
<path d="M16.1459 24.9999C15.8584 24.9999 15.625 24.7666 15.625 24.4791V20.3124C15.625 19.451 14.924 18.7499 14.0625 18.7499H10.9375C10.0761 18.7499 9.37504 19.451 9.37504 20.3124V24.4791C9.37504 24.7666 9.14171 24.9999 8.85421 24.9999C8.56671 24.9999 8.33337 24.7666 8.33337 24.4791V20.3124C8.33337 18.877 9.50108 17.7083 10.9375 17.7083H14.0625C15.499 17.7083 16.6667 18.877 16.6667 20.3124V24.4791C16.6667 24.7666 16.4334 24.9999 16.1459 24.9999Z" fill="black"/>
</g>
<defs>
<clipPath id="clip0">
<rect width="25" height="25" fill="white"/>
</clipPath>
</defs>
</svg>
