<svg width="25" height="25" viewBox="0 0 25 25" fill="none" xmlns="http://www.w3.org/2000/svg">
<g clip-path="url(#clip0)">
<path d="M24.7342 10.1572L12.8838 1.48057C12.6553 1.31328 12.3448 1.31328 12.1164 1.48057L0.265897 10.1572C-0.0235557 10.3691 -0.0864464 10.7756 0.125517 11.065C0.337479 11.3545 0.743974 11.4173 1.03338 11.2054L12.5 2.80972L23.9667 11.2054C24.0823 11.2901 24.2167 11.3309 24.3499 11.3309C24.5499 11.3309 24.7472 11.2388 24.8745 11.065C25.0865 10.7756 25.0236 10.3691 24.7342 10.1572Z" fill="black"/>
<path d="M21.5933 11.3556C21.2346 11.3556 20.9438 11.6464 20.9438 12.0052V22.3445H15.7474V16.7006C15.7474 14.9096 14.2903 13.4526 12.4993 13.4526C10.7084 13.4526 9.25129 14.9097 9.25129 16.7006V22.3445H4.05486V12.0052C4.05486 11.6465 3.76399 11.3556 3.4053 11.3556C3.04661 11.3556 2.75574 11.6465 2.75574 12.0052V22.9941C2.75574 23.3529 3.04661 23.6437 3.4053 23.6437H9.90086C10.2425 23.6437 10.522 23.3798 10.5479 23.0447C10.5494 23.0295 10.5504 23.0129 10.5504 22.9941V16.7007C10.5504 15.626 11.4247 14.7517 12.4993 14.7517C13.574 14.7517 14.4483 15.6261 14.4483 16.7007V22.9941C14.4483 23.0128 14.4492 23.0291 14.4508 23.0441C14.4764 23.3794 14.756 23.6437 15.0978 23.6437H21.5934C21.9521 23.6437 22.2429 23.3529 22.2429 22.9941V12.0052C22.2429 11.6464 21.9521 11.3556 21.5933 11.3556Z" fill="black"/>
</g>
<defs>
<clipPath id="clip0">
<rect width="25" height="25" fill="white"/>
</clipPath>
</defs>
</svg>
