<svg width="25" height="25" viewBox="0 0 25 25" fill="none" xmlns="http://www.w3.org/2000/svg">
<g clip-path="url(#clip0)">
<path d="M5.20837 6.25C3.48546 6.25 2.08337 4.84792 2.08337 3.125C2.08337 1.40208 3.48546 0 5.20837 0C6.93129 0 8.33337 1.40208 8.33337 3.125C8.33337 4.84792 6.93129 6.25 5.20837 6.25ZM5.20837 1.04167C4.05942 1.04167 3.12504 1.97604 3.12504 3.125C3.12504 4.27396 4.05942 5.20833 5.20837 5.20833C6.35733 5.20833 7.29171 4.27396 7.29171 3.125C7.29171 1.97604 6.35733 1.04167 5.20837 1.04167Z" fill="black"/>
<path d="M6.77083 24.9998H3.64583C2.78438 24.9998 2.08333 24.2988 2.08333 23.4373V17.8311C2.08333 17.6321 1.97292 17.454 1.79583 17.3655L0.863542 16.8998C0.33125 16.6332 0 16.0978 0 15.5019V10.9373C0 8.92692 1.63542 7.2915 3.64583 7.2915H6.77083C8.78125 7.2915 10.4167 8.92692 10.4167 10.9373V15.5019C10.4167 16.0978 10.0854 16.6332 9.55313 16.8998L8.62083 17.3655C8.44375 17.454 8.33333 17.6321 8.33333 17.8311V23.4373C8.33333 24.2988 7.63229 24.9998 6.77083 24.9998ZM3.64583 8.33317C2.21042 8.33317 1.04167 9.50192 1.04167 10.9373V15.5019C1.04167 15.7009 1.15208 15.879 1.32917 15.9675L2.26146 16.4332C2.79375 16.6998 3.125 17.2353 3.125 17.8311V23.4373C3.125 23.7248 3.35833 23.9582 3.64583 23.9582H6.77083C7.05833 23.9582 7.29167 23.7248 7.29167 23.4373V17.8311C7.29167 17.2353 7.62292 16.6998 8.15521 16.4332L9.0875 15.9675C9.26458 15.879 9.375 15.7009 9.375 15.5019V10.9373C9.375 9.50192 8.20625 8.33317 6.77083 8.33317H3.64583Z" fill="black"/>
<path d="M22.3958 16.6666H13.0208C12.7333 16.6666 12.5 16.4333 12.5 16.1458C12.5 15.8583 12.7333 15.6249 13.0208 15.6249H22.3958C23.2573 15.6249 23.9583 14.9239 23.9583 14.0624V4.68742C23.9583 3.82596 23.2573 3.12492 22.3958 3.12492H10.9375C10.65 3.12492 10.4166 2.89159 10.4166 2.60409C10.4166 2.31659 10.65 2.08325 10.9375 2.08325H22.3958C23.8312 2.08325 25 3.252 25 4.68742V14.0624C25 15.4978 23.8312 16.6666 22.3958 16.6666Z" fill="black"/>
<path d="M15.1041 12.5C14.9312 12.5 14.7687 12.4135 14.6707 12.2677L12.5874 9.14271C12.428 8.90313 12.4926 8.58021 12.7322 8.42083C12.9707 8.26042 13.2957 8.32604 13.4541 8.56562L14.9239 10.7698L16.1676 6.62187C16.2332 6.40104 16.4364 6.25 16.6666 6.25H21.3541C21.6416 6.25 21.8749 6.48333 21.8749 6.77083C21.8749 7.05833 21.6416 7.29167 21.3541 7.29167H17.0541L15.603 12.1292C15.5447 12.3229 15.3812 12.4646 15.1812 12.4948C15.1551 12.4979 15.1291 12.5 15.1041 12.5Z" fill="black"/>
</g>
<defs>
<clipPath id="clip0">
<rect width="25" height="25" fill="white"/>
</clipPath>
</defs>
</svg>
