<svg width="25" height="25" viewBox="0 0 25 25" fill="none" xmlns="http://www.w3.org/2000/svg">
<g clip-path="url(#clip0)">
<path d="M9.37496 10.4167C6.50308 10.4167 4.16663 8.08021 4.16663 5.20833C4.16663 2.33646 6.50308 0 9.37496 0C12.2468 0 14.5833 2.33646 14.5833 5.20833C14.5833 8.08021 12.2468 10.4167 9.37496 10.4167ZM9.37496 1.04167C7.07704 1.04167 5.20829 2.91042 5.20829 5.20833C5.20829 7.50625 7.07704 9.375 9.37496 9.375C11.6729 9.375 13.5416 7.50625 13.5416 5.20833C13.5416 2.91042 11.6729 1.04167 9.37496 1.04167Z" fill="black"/>
<path d="M9.89583 21.875H0.520833C0.233333 21.875 0 21.6417 0 21.3542V17.1875C0 14.6031 2.10313 12.5 4.6875 12.5H14.0625C14.35 12.5 14.5833 12.7333 14.5833 13.0208C14.5833 13.3083 14.35 13.5417 14.0625 13.5417H4.6875C2.67708 13.5417 1.04167 15.1771 1.04167 17.1875V20.8333H9.89583C10.1833 20.8333 10.4167 21.0667 10.4167 21.3542C10.4167 21.6417 10.1833 21.875 9.89583 21.875Z" fill="black"/>
<path d="M17.7083 25C16.2177 25 14.7281 24.5583 13.2479 23.676C12.7854 23.401 12.5 22.8875 12.5 22.3365V19.2708C12.5 18.9833 12.7333 18.75 13.0208 18.75C13.3083 18.75 13.5417 18.9833 13.5417 19.2708V22.3365C13.5417 22.5198 13.6354 22.6948 13.7802 22.7813C16.424 24.3573 18.9938 24.3573 21.6354 22.7813C21.7813 22.6948 21.875 22.5198 21.875 22.3365V19.2708C21.875 18.9833 22.1083 18.75 22.3958 18.75C22.6833 18.75 22.9167 18.9833 22.9167 19.2708V22.3365C22.9167 22.8875 22.6313 23.401 22.1688 23.676C20.6885 24.5583 19.199 25 17.7083 25Z" fill="black"/>
<path d="M17.7083 21.875C17.6343 21.875 17.5593 21.8593 17.4895 21.827L10.7187 18.702C10.5343 18.6166 10.4166 18.4322 10.4166 18.2291C10.4166 18.026 10.5343 17.8416 10.7187 17.7562L17.4895 14.6312C17.6302 14.5666 17.7864 14.5666 17.927 14.6312L24.6979 17.7562C24.8823 17.8416 25 18.026 25 18.2291C25 18.4322 24.8823 18.6166 24.6979 18.702L17.927 21.827C17.8573 21.8593 17.7823 21.875 17.7083 21.875ZM12.1802 18.2291L17.7083 20.7802L23.2364 18.2291L17.7083 15.6781L12.1802 18.2291Z" fill="black"/>
</g>
<defs>
<clipPath id="clip0">
<rect width="25" height="25" fill="white"/>
</clipPath>
</defs>
</svg>
