<svg width="28" height="28" viewBox="0 0 28 28" fill="none" xmlns="http://www.w3.org/2000/svg">
<path d="M19.25 0H8.75C3.91825 0 0 3.91825 0 8.75V19.25C0 24.0817 3.91825 28 8.75 28H19.25C24.0817 28 28 24.0817 28 19.25V8.75C28 3.91825 24.0817 0 19.25 0ZM25.375 19.25C25.375 22.6275 22.6275 25.375 19.25 25.375H8.75C5.3725 25.375 2.625 22.6275 2.625 19.25V8.75C2.625 5.3725 5.3725 2.625 8.75 2.625H19.25C22.6275 2.625 25.375 5.3725 25.375 8.75V19.25Z" fill="#05303A"/>
<path d="M14 7C10.1342 7 7 10.1342 7 14C7 17.8658 10.1342 21 14 21C17.8658 21 21 17.8658 21 14C21 10.1342 17.8658 7 14 7ZM14 18.375C11.5885 18.375 9.625 16.4115 9.625 14C9.625 11.5868 11.5885 9.625 14 9.625C16.4115 9.625 18.375 11.5868 18.375 14C18.375 16.4115 16.4115 18.375 14 18.375Z" fill="#05303A"/>
<path d="M21.5248 7.40774C22.0399 7.40774 22.4575 6.99013 22.4575 6.47499C22.4575 5.95984 22.0399 5.54224 21.5248 5.54224C21.0096 5.54224 20.592 5.95984 20.592 6.47499C20.592 6.99013 21.0096 7.40774 21.5248 7.40774Z" fill="#05303A"/>
</svg>
