<svg width="32" height="30" viewBox="0 0 32 30" fill="none" xmlns="http://www.w3.org/2000/svg">
<path fill-rule="evenodd" clip-rule="evenodd" d="M31.2418 1.20799C31.6625 1.57873 31.8412 2.15312 31.7052 2.69708L25.3719 28.0304C25.2408 28.5547 24.8379 28.9679 24.3171 29.1122C23.7963 29.2564 23.2381 29.1094 22.856 28.7273L16.1623 22.0336L12.45 26.9833C12.1153 27.4296 11.5604 27.6533 11.0097 27.5639C10.459 27.4745 10.0034 27.0869 9.82698 26.5576L6.8568 17.6471L1.07919 14.7583C0.548522 14.4929 0.224115 13.9397 0.251621 13.3471C0.279128 12.7544 0.653378 12.2336 1.20634 12.0186L29.7063 0.935271C30.2289 0.732048 30.8212 0.837243 31.2418 1.20799ZM17.0789 18.7076C17.0679 18.6961 17.0566 18.6848 17.045 18.6737L16.538 18.1666L21.8107 12.8939C22.3965 12.3082 22.3965 11.3584 21.8107 10.7726C21.2249 10.1868 20.2751 10.1868 19.6893 10.7726L13.356 17.106C13.0747 17.3873 12.9167 17.7688 12.9167 18.1666C12.9167 18.5644 13.0747 18.946 13.356 19.2273L14.0194 19.8907L11.7677 22.893L9.50637 16.1089C9.38056 15.7315 9.10999 15.4195 8.75416 15.2416L5.4473 13.5882L28.0916 4.78208L23.104 24.7326L17.0789 18.7076Z" fill="#05303A"/>
</svg>
