<svg width="45" height="28" viewBox="0 0 45 28" fill="none" xmlns="http://www.w3.org/2000/svg">
<path d="M22.7716 28C29.2816 28 26.9603 23.8971 27.4628 22.7173C27.4553 21.8363 27.4478 20.9888 27.4778 20.4736C27.8903 20.5893 28.8634 21.0803 30.8734 23.0253C33.9765 26.1427 34.7696 28 37.2765 28H41.8908C43.3533 28 44.1145 27.3971 44.4951 26.8912C44.8626 26.4021 45.2226 25.5435 44.8289 24.2069C43.7995 20.9888 37.7958 15.4317 37.4227 14.8456C37.479 14.7373 37.569 14.5936 37.6158 14.5189H37.6121C38.7971 12.9603 43.3195 6.21413 43.9851 3.51493C43.987 3.5112 43.9889 3.5056 43.9889 3.5C44.3489 2.268 44.0189 1.46907 43.6776 1.01733C43.1639 0.3416 42.3464 0 41.2421 0H36.6277C35.0827 0 33.9109 0.774666 33.3184 2.18773C32.3265 4.6984 29.5403 9.8616 27.4516 11.6891C27.3878 9.1 27.4309 7.1232 27.4647 5.65413C27.5322 2.7888 27.7497 0 24.7629 0H17.5104C15.6392 0 13.8486 2.03467 15.7873 4.45013C17.4823 6.56693 16.3967 7.74667 16.7623 13.6192C15.3373 12.0979 12.8024 7.98933 11.0099 2.7384C10.5074 1.31787 9.74614 0.00186653 7.60304 0.00186653H2.98872C1.11749 0.00186653 0 1.01733 0 2.71787C0 6.53707 8.49178 28 22.7716 28V28ZM7.60304 2.80187C8.00991 2.80187 8.05116 2.80187 8.35303 3.65493C10.1886 9.03653 14.3061 16.9997 17.3136 16.9997C19.5729 16.9997 19.5729 14.6944 19.5729 13.8264L19.571 6.916C19.4473 4.62933 18.611 3.49067 18.0617 2.8L24.6391 2.80747C24.6429 2.8392 24.6016 10.4515 24.6579 12.2957C24.6579 14.9147 26.7466 16.4155 30.0072 13.1301C33.4478 9.26427 35.8271 3.48507 35.9227 3.24987C36.0634 2.91387 36.1852 2.8 36.6277 2.8H41.2421H41.2608C41.2589 2.8056 41.2589 2.8112 41.257 2.8168C40.8352 4.7768 36.6709 11.0227 35.2777 12.9621C35.2552 12.992 35.2346 13.0237 35.214 13.0555C34.6009 14.0523 34.1021 15.1536 35.2984 16.7029H35.3002C35.409 16.8336 35.6921 17.1397 36.1046 17.5653C37.3871 18.8832 41.7858 23.3893 42.1758 25.1813C41.917 25.2224 41.6358 25.1925 37.2765 25.2019C36.3484 25.2019 35.6227 23.8205 32.8534 21.0392C30.3634 18.6275 28.7472 17.6419 27.2753 17.6419C24.4179 17.6419 24.626 19.9509 24.6522 22.7435C24.6616 25.7712 24.6429 24.8136 24.6635 25.004C24.4966 25.0693 24.0185 25.2 22.7716 25.2C10.8749 25.2 3.12747 6.4008 2.82934 2.80747C2.93247 2.79813 4.35183 2.80373 7.60304 2.80187V2.80187Z" fill="#05303A"/>
</svg>
